<svg width="468" height="78" viewBox="0 0 468 78" fill="none" xmlns="http://www.w3.org/2000/svg">
<path d="M4.89844 14.9897L1.54688 14.1929L2.01562 11.4272H14.7656L23.4609 34.4194H23.8359L32.2031 11.4272H45.2109L45.6797 14.1929L42.3516 14.9897V39.5757L45.6797 40.3726L45.2109 43.1382H32.4375L31.9688 40.3726L35.3203 39.5757V16.5366H34.9453L25.0078 43.1382H20.2031L9.96094 16.5366H9.58594V39.5757L12.9141 40.3726L12.4453 43.1382H2.01562L1.54688 40.3726L4.89844 39.5757V14.9897ZM73.6406 20.4741L71.4844 20.9194L63.6797 43.2319C62.3359 47.1382 60.9609 49.8804 59.5547 51.4585C58.1484 53.0522 56.3672 53.8491 54.2109 53.8491C53.1016 53.8491 51.9844 53.7085 50.8594 53.4272C49.7344 53.146 48.7031 52.7632 47.7656 52.2788L48.7266 48.271C49.8984 48.7866 51.1562 49.2319 52.5 49.6069C53.8594 49.9819 54.9844 50.1694 55.875 50.1694C56.2188 49.9663 56.6016 49.5913 57.0234 49.0444C57.4609 48.4976 57.8281 47.8726 58.125 47.1694L48.8906 20.9194L46.7344 20.4741L47.2031 17.7085H57.75L58.2188 20.4741L55.3359 20.9194L61.0312 37.9351H61.4062L67.0312 20.9194L64.1719 20.4741L64.6406 17.7085H73.1719L73.6406 20.4741ZM101.531 24.0835C105.141 26.1147 107.625 27.9038 108.984 29.4507C110.359 30.9819 111.047 32.8491 111.047 35.0522C111.047 37.7866 109.906 39.9038 107.625 41.4038C105.344 42.9038 102.227 43.6538 98.2734 43.6538C96.4609 43.6538 94.7188 43.521 93.0469 43.2554C91.375 42.9897 89.9531 42.6304 88.7812 42.1772L88.2891 35.6382L92.2031 35.0522L94.1719 39.6694C94.8125 39.8257 95.5156 39.9507 96.2812 40.0444C97.0625 40.1226 97.8438 40.1616 98.625 40.1616C99.4531 40.1616 100.281 40.0991 101.109 39.9741C101.938 39.8491 102.672 39.6929 103.312 39.5054C103.5 39.1304 103.664 38.6616 103.805 38.0991C103.945 37.5366 104.016 36.9819 104.016 36.4351C104.016 35.1851 103.523 34.0913 102.539 33.1538C101.555 32.2163 99.7578 30.9663 97.1484 29.4038C93.1641 27.1069 90.6172 25.2554 89.5078 23.8491C88.3984 22.4429 87.8359 20.7944 87.8203 18.9038C87.8203 16.3726 88.9219 14.4116 91.125 13.021C93.3438 11.6147 96.3984 10.9116 100.289 10.9116C101.867 10.9116 103.414 11.021 104.93 11.2397C106.461 11.4585 107.82 11.7554 109.008 12.1304L109.5 18.9272L105.867 19.4429L103.922 14.8257C103.312 14.6851 102.656 14.5835 101.953 14.521C101.266 14.4429 100.586 14.4038 99.9141 14.4038C99.1328 14.4038 98.3516 14.4585 97.5703 14.5679C96.7891 14.6772 96.0312 14.8413 95.2969 15.0601C95.1719 15.4663 95.0625 15.9194 94.9688 16.4194C94.8906 16.9194 94.8516 17.396 94.8516 17.8491C94.8516 18.8335 95.2344 19.6929 96 20.4272C96.7812 21.1616 98.625 22.3804 101.531 24.0835ZM120.75 31.1147V32.6616C120.75 35.1616 121.352 37.0757 122.555 38.4038C123.773 39.7163 125.609 40.3726 128.062 40.3726C129.125 40.3726 130.359 40.2163 131.766 39.9038C133.172 39.5913 134.383 39.2397 135.398 38.8491V41.5679C134.258 42.146 132.789 42.6382 130.992 43.0444C129.195 43.4507 127.367 43.6538 125.508 43.6538C121.805 43.6538 118.953 42.7788 116.953 41.0288C114.953 39.2788 113.953 36.7476 113.953 33.4351V31.4897C113.953 26.9897 115.078 23.4819 117.328 20.9663C119.578 18.4507 122.703 17.1929 126.703 17.1929C130.266 17.1929 132.812 18.0444 134.344 19.7476C135.875 21.4351 136.641 24.2085 136.641 28.0679V31.1147H120.75ZM121.875 21.3882C121.625 22.2944 121.398 23.3257 121.195 24.4819C121.008 25.6382 120.883 26.7554 120.82 27.8335H129.844C129.844 25.0991 129.531 23.1929 128.906 22.1147C128.281 21.021 127.219 20.4741 125.719 20.4741C125.062 20.4741 124.398 20.5522 123.727 20.7085C123.07 20.8647 122.453 21.0913 121.875 21.3882ZM142.383 10.6069L139.031 9.81006L139.5 7.04443L149.18 6.52881V39.5757L152.531 40.3726L152.062 43.1382H139.5L139.031 40.3726L142.383 39.5757V10.6069ZM161.578 31.1147V32.6616C161.578 35.1616 162.18 37.0757 163.383 38.4038C164.602 39.7163 166.438 40.3726 168.891 40.3726C169.953 40.3726 171.188 40.2163 172.594 39.9038C174 39.5913 175.211 39.2397 176.227 38.8491V41.5679C175.086 42.146 173.617 42.6382 171.82 43.0444C170.023 43.4507 168.195 43.6538 166.336 43.6538C162.633 43.6538 159.781 42.7788 157.781 41.0288C155.781 39.2788 154.781 36.7476 154.781 33.4351V31.4897C154.781 26.9897 155.906 23.4819 158.156 20.9663C160.406 18.4507 163.531 17.1929 167.531 17.1929C171.094 17.1929 173.641 18.0444 175.172 19.7476C176.703 21.4351 177.469 24.2085 177.469 28.0679V31.1147H161.578ZM162.703 21.3882C162.453 22.2944 162.227 23.3257 162.023 24.4819C161.836 25.6382 161.711 26.7554 161.648 27.8335H170.672C170.672 25.0991 170.359 23.1929 169.734 22.1147C169.109 21.021 168.047 20.4741 166.547 20.4741C165.891 20.4741 165.227 20.5522 164.555 20.7085C163.898 20.8647 163.281 21.0913 162.703 21.3882ZM180 31.6069C180 26.8882 181.102 23.3101 183.305 20.8726C185.523 18.4194 188.578 17.1929 192.469 17.1929C193.734 17.1929 195.047 17.3257 196.406 17.5913C197.766 17.8413 199.023 18.2007 200.18 18.6694L200.625 24.6226L196.641 25.1616L194.93 20.7085C194.414 20.6147 193.906 20.5522 193.406 20.521C192.922 20.4897 192.461 20.4741 192.023 20.4741C191.289 20.4741 190.555 20.5679 189.82 20.7554C189.102 20.9272 188.484 21.146 187.969 21.4116C187.656 22.4585 187.383 23.771 187.148 25.3491C186.914 26.9272 186.797 28.5444 186.797 30.2007V32.7554C186.797 35.2554 187.367 37.1538 188.508 38.4507C189.664 39.7319 191.336 40.3726 193.523 40.3726C194.523 40.3726 195.68 40.1929 196.992 39.8335C198.305 39.4741 199.453 39.0835 200.438 38.6616V41.3804C199.25 42.0679 197.859 42.6226 196.266 43.0444C194.688 43.4507 193.078 43.6538 191.438 43.6538C187.844 43.6538 185.039 42.8022 183.023 41.0991C181.008 39.396 180 36.9585 180 33.7866V31.6069ZM218.18 17.7085L218.648 20.4976L212.32 21.2476V36.2944C212.32 37.5913 212.523 38.5991 212.93 39.3179C213.352 40.021 214.172 40.3726 215.391 40.3726C215.844 40.3726 216.367 40.2866 216.961 40.1147C217.555 39.9272 218.125 39.7085 218.672 39.4585V42.1304C217.828 42.6147 216.859 42.9897 215.766 43.2554C214.672 43.521 213.578 43.6538 212.484 43.6538C209.984 43.6538 208.195 43.1069 207.117 42.0132C206.055 40.9038 205.523 39.1694 205.523 36.8101V21.2476L201.984 20.4976L202.453 17.7085H205.523L207.234 10.8413L212.32 11.3101V17.7085H218.18ZM228.188 31.1147V32.6616C228.188 35.1616 228.789 37.0757 229.992 38.4038C231.211 39.7163 233.047 40.3726 235.5 40.3726C236.562 40.3726 237.797 40.2163 239.203 39.9038C240.609 39.5913 241.82 39.2397 242.836 38.8491V41.5679C241.695 42.146 240.227 42.6382 238.43 43.0444C236.633 43.4507 234.805 43.6538 232.945 43.6538C229.242 43.6538 226.391 42.7788 224.391 41.0288C222.391 39.2788 221.391 36.7476 221.391 33.4351V31.4897C221.391 26.9897 222.516 23.4819 224.766 20.9663C227.016 18.4507 230.141 17.1929 234.141 17.1929C237.703 17.1929 240.25 18.0444 241.781 19.7476C243.312 21.4351 244.078 24.2085 244.078 28.0679V31.1147H228.188ZM229.312 21.3882C229.062 22.2944 228.836 23.3257 228.633 24.4819C228.445 25.6382 228.32 26.7554 228.258 27.8335H237.281C237.281 25.0991 236.969 23.1929 236.344 22.1147C235.719 21.021 234.656 20.4741 233.156 20.4741C232.5 20.4741 231.836 20.5522 231.164 20.7085C230.508 20.8647 229.891 21.0913 229.312 21.3882ZM270.164 39.5757L273.516 40.3726L273.047 43.1382L265.195 43.6538L263.859 39.9507C262.984 41.0601 261.836 41.9585 260.414 42.646C259.008 43.3179 257.523 43.6538 255.961 43.6538C252.93 43.6538 250.625 42.8022 249.047 41.0991C247.484 39.396 246.703 36.8491 246.703 33.4585V31.2788C246.703 26.8726 247.805 23.4272 250.008 20.9429C252.211 18.4429 255.312 17.1929 259.312 17.1929C259.906 17.1929 260.562 17.2397 261.281 17.3335C262 17.4116 262.695 17.5132 263.367 17.6382V10.6069L260.016 9.81006L260.484 7.04443L270.164 6.52881V39.5757ZM253.5 33.2241C253.5 35.5679 253.867 37.3491 254.602 38.5679C255.352 39.771 256.445 40.3726 257.883 40.3726C258.805 40.3726 259.75 40.0991 260.719 39.5522C261.703 38.9897 262.586 38.271 263.367 37.396V21.0601C262.805 20.9194 262.109 20.7866 261.281 20.6616C260.469 20.5366 259.656 20.4741 258.844 20.4741C257.953 20.4741 257.117 20.5835 256.336 20.8022C255.57 21.0054 254.938 21.2632 254.438 21.5757C254.172 22.6538 253.945 23.9429 253.758 25.4429C253.586 26.9272 253.5 28.5054 253.5 30.1772V33.2241ZM292.148 14.9897L288.797 14.1929L289.266 11.4272H302.742C306.586 11.4272 309.469 12.1304 311.391 13.5366C313.328 14.9429 314.297 17.021 314.297 19.771C314.297 22.7241 313.258 25.0522 311.18 26.7554C309.117 28.4429 306.469 29.2866 303.234 29.2866H299.18V39.5757L304.148 40.3726L303.68 43.1382H289.266L288.797 40.3726L292.148 39.5757V14.9897ZM299.18 14.9194V25.7944H301.758C302.664 25.7944 303.555 25.7319 304.43 25.6069C305.32 25.4663 306.016 25.3101 306.516 25.1382C306.719 24.5288 306.875 23.7944 306.984 22.9351C307.109 22.0757 307.172 21.2476 307.172 20.4507C307.172 18.5757 306.648 17.1851 305.602 16.2788C304.57 15.3726 303.055 14.9194 301.055 14.9194H299.18ZM319.43 21.271L316.078 20.4741L316.547 17.7085L324.398 17.1929L325.758 20.896C326.445 19.6147 327.289 18.6772 328.289 18.0835C329.289 17.4897 330.453 17.1929 331.781 17.1929C332.406 17.1929 333.062 17.2788 333.75 17.4507C334.438 17.6226 335.07 17.8647 335.648 18.1772L335.062 25.2788H330.562L329.93 20.8491C329.82 20.8179 329.711 20.7944 329.602 20.7788C329.492 20.7632 329.391 20.7554 329.297 20.7554C328.828 20.7554 328.32 21.0444 327.773 21.6226C327.242 22.1851 326.727 22.9663 326.227 23.9663V39.5757L330.352 40.3726L329.883 43.1382H316.547L316.078 40.3726L319.43 39.5757V21.271ZM349.312 43.6538C345.547 43.6538 342.633 42.7476 340.57 40.9351C338.523 39.1226 337.5 36.5835 337.5 33.3179V31.1382C337.5 26.7788 338.633 23.3647 340.898 20.896C343.164 18.4272 346.172 17.1929 349.922 17.1929C353.641 17.1929 356.57 18.0913 358.711 19.8882C360.852 21.6851 361.922 24.3101 361.922 27.7632V29.9663C361.922 34.1382 360.805 37.4663 358.57 39.9507C356.336 42.4194 353.25 43.6538 349.312 43.6538ZM355.125 28.5601C355.125 25.9351 354.578 23.9351 353.484 22.5601C352.406 21.1694 351.031 20.4741 349.359 20.4741C348.609 20.4741 347.898 20.5601 347.227 20.7319C346.555 20.9038 345.969 21.1304 345.469 21.4116C345.109 22.5054 344.82 23.7788 344.602 25.2319C344.398 26.6851 344.297 28.1851 344.297 29.7319V32.521C344.297 35.021 344.852 36.9585 345.961 38.3335C347.07 39.6929 348.43 40.3726 350.039 40.3726C350.82 40.3726 351.547 40.2866 352.219 40.1147C352.906 39.9429 353.484 39.7163 353.953 39.4351C354.297 38.5444 354.578 37.396 354.797 35.9897C355.016 34.5679 355.125 33.021 355.125 31.3491V28.5601ZM375.375 44.2397C375.375 47.5679 374.703 49.9976 373.359 51.5288C372.031 53.0757 369.875 53.8491 366.891 53.8491C365.797 53.8491 364.664 53.7632 363.492 53.5913C362.32 53.4194 361.391 53.2163 360.703 52.9819L361.547 49.4429C362.438 49.6929 363.43 49.9116 364.523 50.0991C365.617 50.2866 366.656 50.3882 367.641 50.4038C367.906 49.8882 368.125 49.1694 368.297 48.2476C368.484 47.3257 368.578 46.2944 368.578 45.1538V21.271L364.523 20.4741L364.992 17.7085L375.375 17.1929V44.2397ZM367.992 10.4429C367.992 9.3335 368.281 8.36475 368.859 7.53662C369.453 6.69287 370.141 6.271 370.922 6.271C372.062 6.271 373.039 6.56006 373.852 7.13818C374.664 7.71631 375.07 8.41943 375.07 9.24756C375.07 10.3569 374.773 11.3257 374.18 12.1538C373.586 12.9663 372.906 13.3726 372.141 13.3726C371.016 13.3726 370.039 13.0835 369.211 12.5054C368.398 11.9272 367.992 11.2397 367.992 10.4429ZM387.094 31.1147V32.6616C387.094 35.1616 387.695 37.0757 388.898 38.4038C390.117 39.7163 391.953 40.3726 394.406 40.3726C395.469 40.3726 396.703 40.2163 398.109 39.9038C399.516 39.5913 400.727 39.2397 401.742 38.8491V41.5679C400.602 42.146 399.133 42.6382 397.336 43.0444C395.539 43.4507 393.711 43.6538 391.852 43.6538C388.148 43.6538 385.297 42.7788 383.297 41.0288C381.297 39.2788 380.297 36.7476 380.297 33.4351V31.4897C380.297 26.9897 381.422 23.4819 383.672 20.9663C385.922 18.4507 389.047 17.1929 393.047 17.1929C396.609 17.1929 399.156 18.0444 400.688 19.7476C402.219 21.4351 402.984 24.2085 402.984 28.0679V31.1147H387.094ZM388.219 21.3882C387.969 22.2944 387.742 23.3257 387.539 24.4819C387.352 25.6382 387.227 26.7554 387.164 27.8335H396.188C396.188 25.0991 395.875 23.1929 395.25 22.1147C394.625 21.021 393.562 20.4741 392.062 20.4741C391.406 20.4741 390.742 20.5522 390.07 20.7085C389.414 20.8647 388.797 21.0913 388.219 21.3882ZM405.516 31.6069C405.516 26.8882 406.617 23.3101 408.82 20.8726C411.039 18.4194 414.094 17.1929 417.984 17.1929C419.25 17.1929 420.562 17.3257 421.922 17.5913C423.281 17.8413 424.539 18.2007 425.695 18.6694L426.141 24.6226L422.156 25.1616L420.445 20.7085C419.93 20.6147 419.422 20.5522 418.922 20.521C418.438 20.4897 417.977 20.4741 417.539 20.4741C416.805 20.4741 416.07 20.5679 415.336 20.7554C414.617 20.9272 414 21.146 413.484 21.4116C413.172 22.4585 412.898 23.771 412.664 25.3491C412.43 26.9272 412.312 28.5444 412.312 30.2007V32.7554C412.312 35.2554 412.883 37.1538 414.023 38.4507C415.18 39.7319 416.852 40.3726 419.039 40.3726C420.039 40.3726 421.195 40.1929 422.508 39.8335C423.82 39.4741 424.969 39.0835 425.953 38.6616V41.3804C424.766 42.0679 423.375 42.6226 421.781 43.0444C420.203 43.4507 418.594 43.6538 416.953 43.6538C413.359 43.6538 410.555 42.8022 408.539 41.0991C406.523 39.396 405.516 36.9585 405.516 33.7866V31.6069ZM443.695 17.7085L444.164 20.4976L437.836 21.2476V36.2944C437.836 37.5913 438.039 38.5991 438.445 39.3179C438.867 40.021 439.688 40.3726 440.906 40.3726C441.359 40.3726 441.883 40.2866 442.477 40.1147C443.07 39.9272 443.641 39.7085 444.188 39.4585V42.1304C443.344 42.6147 442.375 42.9897 441.281 43.2554C440.188 43.521 439.094 43.6538 438 43.6538C435.5 43.6538 433.711 43.1069 432.633 42.0132C431.57 40.9038 431.039 39.1694 431.039 36.8101V21.2476L427.5 20.4976L427.969 17.7085H431.039L432.75 10.8413L437.836 11.3101V17.7085H443.695ZM459.258 27.5757C462.148 29.1382 464.148 30.5288 465.258 31.7476C466.367 32.9663 466.922 34.5288 466.922 36.4351C466.922 38.7319 465.961 40.5132 464.039 41.7788C462.133 43.0288 459.438 43.6538 455.953 43.6538C454.281 43.6538 452.695 43.4976 451.195 43.1851C449.711 42.8882 448.438 42.4976 447.375 42.0132L447.141 35.9194L451.102 35.4507L452.484 39.8804C453.016 40.0366 453.594 40.1616 454.219 40.2554C454.844 40.3335 455.477 40.3726 456.117 40.3726C456.836 40.3726 457.516 40.3335 458.156 40.2554C458.797 40.1616 459.398 40.0366 459.961 39.8804C460.023 39.6304 460.062 39.3491 460.078 39.0366C460.109 38.7085 460.125 38.396 460.125 38.0991C460.125 37.0835 459.734 36.2007 458.953 35.4507C458.188 34.7007 456.617 33.6538 454.242 32.3101C451.555 30.8413 449.664 29.5444 448.57 28.4194C447.492 27.2788 446.953 25.7944 446.953 23.9663C446.953 21.8726 447.875 20.2241 449.719 19.021C451.578 17.8022 454.242 17.1929 457.711 17.1929C458.945 17.1929 460.266 17.3257 461.672 17.5913C463.094 17.8569 464.469 18.2554 465.797 18.7866L466.008 24.9038L462.047 25.3726L460.617 20.8257C460.117 20.7007 459.594 20.6147 459.047 20.5679C458.516 20.5054 458.016 20.4741 457.547 20.4741C456.953 20.4741 456.328 20.521 455.672 20.6147C455.031 20.6929 454.461 20.8101 453.961 20.9663C453.883 21.2163 453.828 21.4897 453.797 21.7866C453.766 22.0835 453.75 22.3804 453.75 22.6772C453.75 23.4116 454.086 24.0913 454.758 24.7163C455.43 25.3413 456.93 26.2944 459.258 27.5757Z" fill="#222222"/>
<path d="M85.7499 70.7302C91.836 67.7653 97.7933 66.4858 104.371 65.0533C114.525 62.8417 124.295 60.0901 134.698 59.0592C142.675 58.2685 150.561 57.683 158.54 57.319C177.098 56.4726 195.254 57.0572 213.835 57.7138C223.701 58.0625 233.641 58.0963 243.461 59.1507C252.004 60.0679 260.683 62.0009 269.274 62.3045C273.3 62.4468 276.573 64.3168 280.698 64.4626" stroke="#FF5733" stroke-width="3" stroke-linecap="round" stroke-linejoin="round"/>
</svg>
