<svg width="428" height="87" viewBox="0 0 428 87" fill="none" xmlns="http://www.w3.org/2000/svg">
<path d="M5.3125 21.8516L1.96094 21.0547L2.42969 18.2891H15.9062C19.75 18.2891 22.6328 18.9922 24.5547 20.3984C26.4922 21.8047 27.4609 23.8828 27.4609 26.6328C27.4609 29.5859 26.4219 31.9141 24.3438 33.6172C22.2812 35.3047 19.6328 36.1484 16.3984 36.1484H12.3438V46.4375L17.3125 47.2344L16.8438 50H2.42969L1.96094 47.2344L5.3125 46.4375V21.8516ZM12.3438 21.7812V32.6562H14.9219C15.8281 32.6562 16.7188 32.5938 17.5938 32.4688C18.4844 32.3281 19.1797 32.1719 19.6797 32C19.8828 31.3906 20.0391 30.6562 20.1484 29.7969C20.2734 28.9375 20.3359 28.1094 20.3359 27.3125C20.3359 25.4375 19.8125 24.0469 18.7656 23.1406C17.7344 22.2344 16.2188 21.7812 14.2188 21.7812H12.3438ZM32.5938 28.1328L29.2422 27.3359L29.7109 24.5703L37.5625 24.0547L38.9219 27.7578C39.6094 26.4766 40.4531 25.5391 41.4531 24.9453C42.4531 24.3516 43.6172 24.0547 44.9453 24.0547C45.5703 24.0547 46.2266 24.1406 46.9141 24.3125C47.6016 24.4844 48.2344 24.7266 48.8125 25.0391L48.2266 32.1406H43.7266L43.0938 27.7109C42.9844 27.6797 42.875 27.6562 42.7656 27.6406C42.6562 27.625 42.5547 27.6172 42.4609 27.6172C41.9922 27.6172 41.4844 27.9062 40.9375 28.4844C40.4062 29.0469 39.8906 29.8281 39.3906 30.8281V46.4375L43.5156 47.2344L43.0469 50H29.7109L29.2422 47.2344L32.5938 46.4375V28.1328ZM62.4766 50.5156C58.7109 50.5156 55.7969 49.6094 53.7344 47.7969C51.6875 45.9844 50.6641 43.4453 50.6641 40.1797V38C50.6641 33.6406 51.7969 30.2266 54.0625 27.7578C56.3281 25.2891 59.3359 24.0547 63.0859 24.0547C66.8047 24.0547 69.7344 24.9531 71.875 26.75C74.0156 28.5469 75.0859 31.1719 75.0859 34.625V36.8281C75.0859 41 73.9688 44.3281 71.7344 46.8125C69.5 49.2812 66.4141 50.5156 62.4766 50.5156ZM68.2891 35.4219C68.2891 32.7969 67.7422 30.7969 66.6484 29.4219C65.5703 28.0312 64.1953 27.3359 62.5234 27.3359C61.7734 27.3359 61.0625 27.4219 60.3906 27.5938C59.7188 27.7656 59.1328 27.9922 58.6328 28.2734C58.2734 29.3672 57.9844 30.6406 57.7656 32.0938C57.5625 33.5469 57.4609 35.0469 57.4609 36.5938V39.3828C57.4609 41.8828 58.0156 43.8203 59.125 45.1953C60.2344 46.5547 61.5938 47.2344 63.2031 47.2344C63.9844 47.2344 64.7109 47.1484 65.3828 46.9766C66.0703 46.8047 66.6484 46.5781 67.1172 46.2969C67.4609 45.4062 67.7422 44.2578 67.9609 42.8516C68.1797 41.4297 68.2891 39.8828 68.2891 38.2109V35.4219ZM102.93 27.3359L100.773 27.7812L92.9922 50H86.0312L78.1797 27.8047L76.0234 27.3359L76.4922 24.5703H87.0391L87.5078 27.3359L84.625 27.7812L90.3203 44.7969H90.6953L96.3203 27.7812L93.4609 27.3359L93.9297 24.5703H102.461L102.93 27.3359ZM114.109 46.4375L117.461 47.2344L116.992 50H104.43L103.961 47.2344L107.312 46.4375V28.1328L103.961 27.3359L104.43 24.5703L114.109 24.0547V46.4375ZM106.727 17.3047C106.727 16.1953 107.016 15.2266 107.594 14.3984C108.188 13.5547 108.875 13.1328 109.656 13.1328C110.797 13.1328 111.773 13.4219 112.586 14C113.398 14.5781 113.805 15.2813 113.805 16.1094C113.805 17.2188 113.508 18.1875 112.914 19.0156C112.32 19.8281 111.641 20.2344 110.875 20.2344C109.75 20.2344 108.773 19.9453 107.945 19.3672C107.133 18.7891 106.727 18.1016 106.727 17.3047ZM143.688 46.4375L147.039 47.2344L146.57 50L138.719 50.5156L137.383 46.8125C136.508 47.9219 135.359 48.8203 133.938 49.5078C132.531 50.1797 131.047 50.5156 129.484 50.5156C126.453 50.5156 124.148 49.6641 122.57 47.9609C121.008 46.2578 120.227 43.7109 120.227 40.3203V38.1406C120.227 33.7344 121.328 30.2891 123.531 27.8047C125.734 25.3047 128.836 24.0547 132.836 24.0547C133.43 24.0547 134.086 24.1016 134.805 24.1953C135.523 24.2734 136.219 24.375 136.891 24.5V17.4688L133.539 16.6719L134.008 13.9062L143.688 13.3906V46.4375ZM127.023 40.0859C127.023 42.4297 127.391 44.2109 128.125 45.4297C128.875 46.6328 129.969 47.2344 131.406 47.2344C132.328 47.2344 133.273 46.9609 134.242 46.4141C135.227 45.8516 136.109 45.1328 136.891 44.2578V27.9219C136.328 27.7812 135.633 27.6484 134.805 27.5234C133.992 27.3984 133.18 27.3359 132.367 27.3359C131.477 27.3359 130.641 27.4453 129.859 27.6641C129.094 27.8672 128.461 28.125 127.961 28.4375C127.695 29.5156 127.469 30.8047 127.281 32.3047C127.109 33.7891 127.023 35.3672 127.023 37.0391V40.0859ZM159.531 46.4375L162.883 47.2344L162.414 50H149.852L149.383 47.2344L152.734 46.4375V28.1328L149.383 27.3359L149.852 24.5703L159.531 24.0547V46.4375ZM152.148 17.3047C152.148 16.1953 152.438 15.2266 153.016 14.3984C153.609 13.5547 154.297 13.1328 155.078 13.1328C156.219 13.1328 157.195 13.4219 158.008 14C158.82 14.5781 159.227 15.2813 159.227 16.1094C159.227 17.2188 158.93 18.1875 158.336 19.0156C157.742 19.8281 157.062 20.2344 156.297 20.2344C155.172 20.2344 154.195 19.9453 153.367 19.3672C152.555 18.7891 152.148 18.1016 152.148 17.3047ZM165.695 47.2344L169.047 46.4375V28.1328L165.695 27.3359L166.164 24.5703L174.016 24.0547L175.375 27.7578C176.844 26.3984 178.281 25.4453 179.688 24.8984C181.094 24.3359 182.578 24.0547 184.141 24.0547C186.797 24.0547 188.82 24.7344 190.211 26.0938C191.602 27.4531 192.297 29.4375 192.297 32.0469V46.4375L195.648 47.2344L195.18 50H182.617L182.148 47.2344L185.5 46.4375V32.3984C185.5 30.6016 185.211 29.3125 184.633 28.5312C184.07 27.7344 183.203 27.3359 182.031 27.3359C181.203 27.3359 180.25 27.625 179.172 28.2031C178.109 28.7812 177 29.6562 175.844 30.8281V46.4375L179.195 47.2344L178.727 50H166.164L165.695 47.2344ZM217.164 27.5469L217.07 27.7812C217.836 28.2188 218.492 28.8516 219.039 29.6797C219.602 30.5078 219.883 31.4219 219.883 32.4219V32.7734C219.883 35.4141 218.883 37.5078 216.883 39.0547C214.898 40.6016 212.305 41.375 209.102 41.375C208.539 41.375 208 41.3594 207.484 41.3281C206.969 41.2812 206.477 41.2188 206.008 41.1406C205.32 41.7344 204.766 42.2969 204.344 42.8281C203.922 43.3594 203.711 43.7891 203.711 44.1172C203.711 44.4922 203.891 44.7578 204.25 44.9141C204.625 45.0547 205.156 45.125 205.844 45.125H210.695C214.492 45.125 217.359 45.7344 219.297 46.9531C221.25 48.1562 222.227 49.9609 222.227 52.3672C222.227 55.0547 221.086 57.1172 218.805 58.5547C216.523 59.9922 213.273 60.7109 209.055 60.7109C205.102 60.7109 202.203 60.3359 200.359 59.5859C198.531 58.8516 197.617 57.6797 197.617 56.0703C197.617 55.1016 198.016 54.1094 198.812 53.0938C199.625 52.0781 200.758 51.0938 202.211 50.1406C201.117 49.8594 200.273 49.4141 199.68 48.8047C199.086 48.1797 198.789 47.4062 198.789 46.4844C198.789 45.4531 199.203 44.3906 200.031 43.2969C200.875 42.1875 201.93 41.1953 203.195 40.3203C201.68 39.6328 200.562 38.75 199.844 37.6719C199.141 36.5938 198.789 35.4141 198.789 34.1328V33.5703C198.789 30.5234 199.758 28.1797 201.695 26.5391C203.633 24.8828 206.227 24.0547 209.477 24.0547C210.039 24.0547 210.625 24.1016 211.234 24.1953C211.844 24.2734 212.438 24.3984 213.016 24.5703H220.75L221.172 27.5469H217.164ZM205.469 50.5156C204.75 51.2188 204.156 51.9531 203.688 52.7188C203.234 53.5 203.008 54.1953 203.008 54.8047C203.008 55.8516 203.516 56.5469 204.531 56.8906C205.562 57.25 207.539 57.4297 210.461 57.4297C211.57 57.4297 212.656 57.3438 213.719 57.1719C214.781 57.0156 215.766 56.7812 216.672 56.4688C216.859 56.1406 217.008 55.7266 217.117 55.2266C217.242 54.7422 217.305 54.2578 217.305 53.7734C217.305 52.5547 216.781 51.7031 215.734 51.2188C214.703 50.75 213.016 50.5156 210.672 50.5156H205.516H205.469ZM213.086 32.0938C213.086 30.5625 212.703 29.3906 211.938 28.5781C211.188 27.75 210.242 27.3359 209.102 27.3359C208.648 27.3359 208.188 27.375 207.719 27.4531C207.266 27.5312 206.867 27.6484 206.523 27.8047C206.258 28.3984 206.031 29.1172 205.844 29.9609C205.672 30.8047 205.586 31.6719 205.586 32.5625V33.4531C205.586 34.8438 205.984 35.9688 206.781 36.8281C207.594 37.6719 208.523 38.0938 209.57 38.0938C210.117 38.0938 210.609 38.0547 211.047 37.9766C211.5 37.8828 211.867 37.7656 212.148 37.625C212.414 37.0938 212.633 36.4219 212.805 35.6094C212.992 34.7812 213.086 33.9062 213.086 32.9844V32.0938ZM250.773 30.9453C254.383 32.9766 256.867 34.7656 258.227 36.3125C259.602 37.8438 260.289 39.7109 260.289 41.9141C260.289 44.6484 259.148 46.7656 256.867 48.2656C254.586 49.7656 251.469 50.5156 247.516 50.5156C245.703 50.5156 243.961 50.3828 242.289 50.1172C240.617 49.8516 239.195 49.4922 238.023 49.0391L237.531 42.5L241.445 41.9141L243.414 46.5312C244.055 46.6875 244.758 46.8125 245.523 46.9062C246.305 46.9844 247.086 47.0234 247.867 47.0234C248.695 47.0234 249.523 46.9609 250.352 46.8359C251.18 46.7109 251.914 46.5547 252.555 46.3672C252.742 45.9922 252.906 45.5234 253.047 44.9609C253.188 44.3984 253.258 43.8438 253.258 43.2969C253.258 42.0469 252.766 40.9531 251.781 40.0156C250.797 39.0781 249 37.8281 246.391 36.2656C242.406 33.9688 239.859 32.1172 238.75 30.7109C237.641 29.3047 237.078 27.6562 237.062 25.7656C237.062 23.2344 238.164 21.2734 240.367 19.8828C242.586 18.4766 245.641 17.7734 249.531 17.7734C251.109 17.7734 252.656 17.8828 254.172 18.1016C255.703 18.3203 257.062 18.6172 258.25 18.9922L258.742 25.7891L255.109 26.3047L253.164 21.6875C252.555 21.5469 251.898 21.4453 251.195 21.3828C250.508 21.3047 249.828 21.2656 249.156 21.2656C248.375 21.2656 247.594 21.3203 246.812 21.4297C246.031 21.5391 245.273 21.7031 244.539 21.9219C244.414 22.3281 244.305 22.7812 244.211 23.2812C244.133 23.7812 244.094 24.2578 244.094 24.7109C244.094 25.6953 244.477 26.5547 245.242 27.2891C246.023 28.0234 247.867 29.2422 250.773 30.9453ZM269.992 37.9766V39.5234C269.992 42.0234 270.594 43.9375 271.797 45.2656C273.016 46.5781 274.852 47.2344 277.305 47.2344C278.367 47.2344 279.602 47.0781 281.008 46.7656C282.414 46.4531 283.625 46.1016 284.641 45.7109V48.4297C283.5 49.0078 282.031 49.5 280.234 49.9062C278.438 50.3125 276.609 50.5156 274.75 50.5156C271.047 50.5156 268.195 49.6406 266.195 47.8906C264.195 46.1406 263.195 43.6094 263.195 40.2969V38.3516C263.195 33.8516 264.32 30.3438 266.57 27.8281C268.82 25.3125 271.945 24.0547 275.945 24.0547C279.508 24.0547 282.055 24.9062 283.586 26.6094C285.117 28.2969 285.883 31.0703 285.883 34.9297V37.9766H269.992ZM271.117 28.25C270.867 29.1562 270.641 30.1875 270.438 31.3438C270.25 32.5 270.125 33.6172 270.062 34.6953H279.086C279.086 31.9609 278.773 30.0547 278.148 28.9766C277.523 27.8828 276.461 27.3359 274.961 27.3359C274.305 27.3359 273.641 27.4141 272.969 27.5703C272.312 27.7266 271.695 27.9531 271.117 28.25ZM291.906 28.1328L288.555 27.3359L289.023 24.5703L296.875 24.0547L298.234 27.7578C298.922 26.4766 299.766 25.5391 300.766 24.9453C301.766 24.3516 302.93 24.0547 304.258 24.0547C304.883 24.0547 305.539 24.1406 306.227 24.3125C306.914 24.4844 307.547 24.7266 308.125 25.0391L307.539 32.1406H303.039L302.406 27.7109C302.297 27.6797 302.188 27.6562 302.078 27.6406C301.969 27.625 301.867 27.6172 301.773 27.6172C301.305 27.6172 300.797 27.9062 300.25 28.4844C299.719 29.0469 299.203 29.8281 298.703 30.8281V46.4375L302.828 47.2344L302.359 50H289.023L288.555 47.2344L291.906 46.4375V28.1328ZM334.867 27.3359L332.711 27.7812L324.93 50H317.969L310.117 27.8047L307.961 27.3359L308.43 24.5703H318.977L319.445 27.3359L316.562 27.7812L322.258 44.7969H322.633L328.258 27.7812L325.398 27.3359L325.867 24.5703H334.398L334.867 27.3359ZM346.047 46.4375L349.398 47.2344L348.93 50H336.367L335.898 47.2344L339.25 46.4375V28.1328L335.898 27.3359L336.367 24.5703L346.047 24.0547V46.4375ZM338.664 17.3047C338.664 16.1953 338.953 15.2266 339.531 14.3984C340.125 13.5547 340.812 13.1328 341.594 13.1328C342.734 13.1328 343.711 13.4219 344.523 14C345.336 14.5781 345.742 15.2813 345.742 16.1094C345.742 17.2188 345.445 18.1875 344.852 19.0156C344.258 19.8281 343.578 20.2344 342.812 20.2344C341.688 20.2344 340.711 19.9453 339.883 19.3672C339.07 18.7891 338.664 18.1016 338.664 17.3047ZM352.07 38.4688C352.07 33.75 353.172 30.1719 355.375 27.7344C357.594 25.2812 360.648 24.0547 364.539 24.0547C365.805 24.0547 367.117 24.1875 368.477 24.4531C369.836 24.7031 371.094 25.0625 372.25 25.5312L372.695 31.4844L368.711 32.0234L367 27.5703C366.484 27.4766 365.977 27.4141 365.477 27.3828C364.992 27.3516 364.531 27.3359 364.094 27.3359C363.359 27.3359 362.625 27.4297 361.891 27.6172C361.172 27.7891 360.555 28.0078 360.039 28.2734C359.727 29.3203 359.453 30.6328 359.219 32.2109C358.984 33.7891 358.867 35.4062 358.867 37.0625V39.6172C358.867 42.1172 359.438 44.0156 360.578 45.3125C361.734 46.5938 363.406 47.2344 365.594 47.2344C366.594 47.2344 367.75 47.0547 369.062 46.6953C370.375 46.3359 371.523 45.9453 372.508 45.5234V48.2422C371.32 48.9297 369.93 49.4844 368.336 49.9062C366.758 50.3125 365.148 50.5156 363.508 50.5156C359.914 50.5156 357.109 49.6641 355.094 47.9609C353.078 46.2578 352.07 43.8203 352.07 40.6484V38.4688ZM382.164 37.9766V39.5234C382.164 42.0234 382.766 43.9375 383.969 45.2656C385.188 46.5781 387.023 47.2344 389.477 47.2344C390.539 47.2344 391.773 47.0781 393.18 46.7656C394.586 46.4531 395.797 46.1016 396.812 45.7109V48.4297C395.672 49.0078 394.203 49.5 392.406 49.9062C390.609 50.3125 388.781 50.5156 386.922 50.5156C383.219 50.5156 380.367 49.6406 378.367 47.8906C376.367 46.1406 375.367 43.6094 375.367 40.2969V38.3516C375.367 33.8516 376.492 30.3438 378.742 27.8281C380.992 25.3125 384.117 24.0547 388.117 24.0547C391.68 24.0547 394.227 24.9062 395.758 26.6094C397.289 28.2969 398.055 31.0703 398.055 34.9297V37.9766H382.164ZM383.289 28.25C383.039 29.1562 382.812 30.1875 382.609 31.3438C382.422 32.5 382.297 33.6172 382.234 34.6953H391.258C391.258 31.9609 390.945 30.0547 390.32 28.9766C389.695 27.8828 388.633 27.3359 387.133 27.3359C386.477 27.3359 385.812 27.4141 385.141 27.5703C384.484 27.7266 383.867 27.9531 383.289 28.25ZM412.984 34.4375C415.875 36 417.875 37.3906 418.984 38.6094C420.094 39.8281 420.648 41.3906 420.648 43.2969C420.648 45.5938 419.688 47.375 417.766 48.6406C415.859 49.8906 413.164 50.5156 409.68 50.5156C408.008 50.5156 406.422 50.3594 404.922 50.0469C403.438 49.75 402.164 49.3594 401.102 48.875L400.867 42.7812L404.828 42.3125L406.211 46.7422C406.742 46.8984 407.32 47.0234 407.945 47.1172C408.57 47.1953 409.203 47.2344 409.844 47.2344C410.562 47.2344 411.242 47.1953 411.883 47.1172C412.523 47.0234 413.125 46.8984 413.688 46.7422C413.75 46.4922 413.789 46.2109 413.805 45.8984C413.836 45.5703 413.852 45.2578 413.852 44.9609C413.852 43.9453 413.461 43.0625 412.68 42.3125C411.914 41.5625 410.344 40.5156 407.969 39.1719C405.281 37.7031 403.391 36.4062 402.297 35.2812C401.219 34.1406 400.68 32.6562 400.68 30.8281C400.68 28.7344 401.602 27.0859 403.445 25.8828C405.305 24.6641 407.969 24.0547 411.438 24.0547C412.672 24.0547 413.992 24.1875 415.398 24.4531C416.82 24.7188 418.195 25.1172 419.523 25.6484L419.734 31.7656L415.773 32.2344L414.344 27.6875C413.844 27.5625 413.32 27.4766 412.773 27.4297C412.242 27.3672 411.742 27.3359 411.273 27.3359C410.68 27.3359 410.055 27.3828 409.398 27.4766C408.758 27.5547 408.188 27.6719 407.688 27.8281C407.609 28.0781 407.555 28.3516 407.523 28.6484C407.492 28.9453 407.477 29.2422 407.477 29.5391C407.477 30.2734 407.812 30.9531 408.484 31.5781C409.156 32.2031 410.656 33.1562 412.984 34.4375Z" fill="#222222"/>
<path d="M232 84.7327C243.885 75.7409 259.486 74.6938 273.696 72.0311C295.11 68.019 316.627 67.4083 338.405 68.0106C367.628 68.8188 396.558 73.3721 425.577 77.0296" stroke="#FF5733" stroke-width="3" stroke-linecap="round" stroke-linejoin="round"/>
</svg>
