<svg width="60" height="54" viewBox="0 0 60 54" fill="none" xmlns="http://www.w3.org/2000/svg">
<path d="M24.1044 11.1903C25.6048 10.561 26.2341 8.77015 25.5564 7.31809L23.1847 2.33265C22.5071 0.929465 20.8614 0.299751 19.4093 0.929465C15.2951 2.67195 11.7618 4.94686 8.95443 7.70579C5.51786 10.9483 3.19455 14.6752 1.93609 18.7894C0.677632 22.9525 0 28.6151 0 35.827V50.6866C0 52.2838 1.30686 53.5907 2.90414 53.5907H21.9262C23.5235 53.5907 24.8304 52.2838 24.8304 50.6866V31.6644C24.8304 30.0667 23.5235 28.7603 21.9262 28.7603H12.8266C12.9234 23.8712 14.0851 19.9511 16.2148 16.9981C17.9573 14.6273 20.571 12.6912 24.1044 11.1903Z" fill="#DBDBDB"/>
<path d="M58.2764 11.1903C59.7769 10.5611 60.4056 8.77021 59.7285 7.31814L57.3568 2.38159C56.6791 0.977924 55.0335 0.348694 53.5814 0.977924C49.5156 2.72041 46.0301 4.99532 43.1749 7.70585C39.7378 10.9972 37.3666 14.7242 36.1077 18.8384C34.8492 22.9037 34.2205 28.5672 34.2205 35.8276V50.6871C34.2205 52.2844 35.5273 53.5913 37.1246 53.5913H56.1467C57.744 53.5913 59.0509 52.2844 59.0509 50.6871V31.665C59.0509 30.0672 57.744 28.7609 56.1467 28.7609H46.9987C47.0955 23.8717 48.2576 19.9516 50.3868 16.9986C52.1293 14.6274 54.743 12.6913 58.2764 11.1903Z" fill="#DBDBDB"/>
</svg>
